# xmcd CD database file
#
# Track frame offsets:
#	150
#	12975
#	32706
#	47919
#	57593
#	67264
#	75415
#	92754
#	105070
#	116387
#	132475
#	147508
#	160400
#	168179
#	179998
#	192930
#	201143
#	217853
#	236887
#	248052
#
# Disc length: 3432 seconds
#
# Revision: 2
# Processed by: cddbd v1.5.1PL0 Copyright (c) Steve Scherf et al.
# Submitted via: CDex 1.40Release
#
DISCID=210d6614
DTITLE=Various Artist - Ultimate Country Box 3
DYEAR=1900
DGENRE=Country
TTITLE0=Mickey Gilley - Roomful of Roses
TTITLE1=Bellamy Brothers - If I Said You Had A Beutiful Body
TTITLE2=Billy Jo Spears - Blanket On The Ground
TTITLE3=Glen Campbell - Gentle On My Mind
TTITLE4=Johnny Cash - Ballad Of A Teenage Queen
TTITLE5=Roger Miller - In The Summertime
TTITLE6=Willie Nelson - Whisky River
TTITLE7=Jeanne Pruett - Satin Sheets
TTITLE8=Tammy Wynette - D.I.V.O.R.C.E.
TTITLE9=Randy Van Warner - Just When I Needed You Most
TTITLE10=Anne Murray - There Goes My Everthing
TTITLE11=Billy Swan - Lover Please
TTITLE12=George Jones - Jambalaya
TTITLE13=Kenny Rogers and The First Edition - Elvira
TTITLE14=Charlie Rich - The Most Beutiful Girl
TTITLE15=Don Gibson - Blue Blue Day
TTITLE16=Kris Krisofferson and Rita Coolidge - Rain
TTITLE17=Tanya Tucker - Delta Dawn
TTITLE18=Waylon Jennings - Crying
TTITLE19=Boots Randolph - Yackkety Sax
EXTD=ID3G: 2
EXTT0=
EXTT1=
EXTT2=
EXTT3=
EXTT4=
EXTT5=
EXTT6=
EXTT7=
EXTT8=
EXTT9=
EXTT10=
EXTT11=
EXTT12=
EXTT13=
EXTT14=
EXTT15=
EXTT16=
EXTT17=
EXTT18=
EXTT19=
PLAYORDER=
